<svg xmlns="http://www.w3.org/2000/svg" width="16" height="16" fill="none" viewBox="0 0 24 24">
  <path fill="#fff" d="M17.472 14.327c-.297-.149-1.757-.867-2.03-.967-.273-.099-.472-.148-.672.149-.198.297-.768.967-.94 1.165-.173.198-.347.223-.644.074-.297-.149-1.255-.462-2.39-1.475-.883-.788-1.48-1.761-1.655-2.059-.173-.297-.018-.458.13-.606.134-.133.297-.347.446-.52.149-.173.198-.297.298-.496.1-.198.05-.372-.025-.521-.074-.149-.672-1.611-.92-2.205-.242-.58-.487-.502-.672-.502-.173 0-.372-.025-.571-.025-.198 0-.52.074-.793.372-.272.298-1.04 1.015-1.04 2.48s1.064 2.865 1.213 3.063c.149.198 2.094 3.195 5.066 4.48.707.304 1.26.486 1.691.623.71.227 1.356.195 1.868.118.57-.085 1.757-.719 2.005-1.412.248-.694.248-1.29.173-1.412-.074-.124-.272-.198-.571-.347zm-5.45 7.346h-.002C6.11 21.673 2.36 17.926 2.36 12.91c0-5.017 3.749-8.764 8.663-8.764 2.316 0 4.491.898 6.129 2.534 1.638 1.635 2.54 3.816 2.54 6.13 0 5.016-3.749 8.764-8.662 8.764zM12.023 0C5.39 0 0 5.388 0 12.025c0 2.119.554 4.194 1.61 6.015L.057 23.986l6.1-1.598a11.978 11.978 0 005.866 1.516h.002c6.633 0 12.024-5.389 12.024-12.027C24.048 5.388 18.657 0 12.023 0z"/>
</svg>