<svg width="16" height="16" viewBox="0 0 16 16" fill="none" xmlns="http://www.w3.org/2000/svg">
  <path d="M8 0C3.58 0 0 3.58 0 8C0 11.54 2.29 14.36 5.47 15.43C5.87 15.5 6 15.26 6 15.07C6 14.87 6 14.27 6 13.44C3.75 13.94 3.32 12.47 3.32 12.47C2.91 11.43 2.33 11.14 2.33 11.14C1.54 10.63 2.39 10.64 2.39 10.64C3.26 10.71 3.67 11.51 3.67 11.51C4.46 12.77 5.7 12.39 6.13 12.18C6.2 11.61 6.42 11.2 6.66 11C4.85 10.82 2.95 10.17 2.95 7.23C2.95 6.42 3.24 5.78 3.73 5.28C3.65 5.09 3.4 4.28 3.8 3.22C3.8 3.22 4.47 3 6 4C6.66 3.77 7.34 3.65 8 3.65C8.66 3.65 9.34 3.77 10 4C11.53 3 12.2 3.22 12.2 3.22C12.6 4.28 12.35 5.09 12.27 5.28C12.76 5.78 13.05 6.42 13.05 7.23C13.05 10.18 11.14 10.82 9.33 11C9.62 11.29 9.87 11.84 9.87 12.71C9.87 13.79 9.87 14.67 9.87 15.07C9.87 15.26 10 15.5 10.4 15.43C13.58 14.36 16 11.54 16 8C16 3.58 12.42 0 8 0Z" fill="white"/>
</svg>